<svg xmlns="http://www.w3.org/2000/svg" viewBox="0 0 640 480" role="img" aria-label="AirPods Pro">
  <defs>
    <linearGradient id="pod" x1="0" y1="0" x2="0" y2="1">
      <stop offset="0" stop-color="#ffffff"/>
      <stop offset="1" stop-color="#e8ecf1"/>
    </linearGradient>
    <filter id="sh" x="-40%" y="-40%" width="180%" height="180%">
      <feDropShadow dx="0" dy="12" stdDeviation="16" flood-color="#8a97a8" flood-opacity="0.30"/>
    </filter>
  </defs>
  <g filter="url(#sh)">
    <g transform="translate(238 165) rotate(-9)">
      <path d="M0,-70 C 40,-70 62,-42 62,-8 C 62,22 42,42 8,46 C 5,120 -3,152 -22,152 C -41,152 -41,120 -37,46 C -62,38 -66,4 -62,-16 C -55,-50 -34,-70 0,-70 Z" fill="url(#pod)" stroke="#d3dae2" stroke-width="2"/>
      <ellipse cx="-2" cy="-14" rx="20" ry="26" fill="#c7d0da" opacity="0.55"/>
      <circle cx="-15" cy="72" r="5" fill="#c7d0da" opacity="0.7"/>
    </g>
    <g transform="translate(410 165) rotate(9) scale(-1,1)">
      <path d="M0,-70 C 40,-70 62,-42 62,-8 C 62,22 42,42 8,46 C 5,120 -3,152 -22,152 C -41,152 -41,120 -37,46 C -62,38 -66,4 -62,-16 C -55,-50 -34,-70 0,-70 Z" fill="url(#pod)" stroke="#d3dae2" stroke-width="2"/>
      <ellipse cx="-2" cy="-14" rx="20" ry="26" fill="#c7d0da" opacity="0.55"/>
      <circle cx="-15" cy="72" r="5" fill="#c7d0da" opacity="0.7"/>
    </g>
  </g>
</svg>
